<?xml version="1.0" standalone="no"?>
<!DOCTYPE svg PUBLIC "-//W3C//DTD SVG 20010904//EN"
 "http://www.w3.org/TR/2001/REC-SVG-20010904/DTD/svg10.dtd">
<svg version="1.0" xmlns="http://www.w3.org/2000/svg"
 width="512.000000pt" height="512.000000pt" viewBox="0 0 512.000000 512.000000"
 preserveAspectRatio="xMidYMid meet">
<metadata>
Created by potrace 1.14, written by Peter Selinger 2001-2017
</metadata>
<g transform="translate(0.000000,512.000000) scale(0.100000,-0.100000)"
fill="#000000" stroke="none">
<path d="M0 2560 l0 -2560 2560 0 2560 0 0 2560 0 2560 -1535 0 c-1455 0
-1535 -1 -1536 -17 -1 -21 0 -2091 0 -2114 1 -14 55 -15 505 -15 277 1 507 4
511 7 3 4 7 256 8 560 l2 554 510 0 510 0 0 -1535 0 -1535 -1535 0 -1536 -1 0
2046 0 2045 -512 3 -512 2 0 -2560z"/>
<path d="M1476 1920 c-2 -5 0 -456 3 -476 1 -8 214 -10 734 -10 l732 1 0 245
0 245 -733 0 c-404 0 -735 -2 -736 -5z"/>
</g>
</svg>
