<svg width="1001" height="202" viewBox="0 0 1001 202" fill="none" xmlns="http://www.w3.org/2000/svg">
<g clip-path="url(#clip0_204_17)">
<path d="M0.5 0.36084V40.2969H80.3722V200.041H120.308V40.2969H200.181V0.36084H0.5Z" fill="black"/>
<path d="M399.861 80.233H280.053V0.36084H240.117V200.041H280.053V120.169H399.861V200.041H439.797V0.36084H399.861V80.233Z" fill="black"/>
<path d="M479.733 200.041H519.669V0.36084H479.733V200.041Z" fill="black"/>
<path d="M559.605 200.041H599.542V40.2969H719.35V200.041H759.286V40.2969H719.35V0.36084H559.605V200.041Z" fill="black"/>
<path d="M839.158 160.105V0.360847L799.222 0.360849V200.041H998.903V0.36084L879.094 0.360845V84.0669H919.03V40.297H958.966V160.105H839.158Z" fill="#A40FFF"/>
<path d="M856.73 124.961V144.131H914.238V124.961H856.73Z" fill="#A40FFF"/>
</g>
<defs>
<clipPath id="clip0_204_17">
<rect width="1000" height="201.278" fill="white" transform="translate(0.5 0.36084)"/>
</clipPath>
</defs>
</svg>
